<?xml version="1.0" standalone="no"?>
<!DOCTYPE svg PUBLIC "-//W3C//DTD SVG 20010904//EN"
 "http://www.w3.org/TR/2001/REC-SVG-20010904/DTD/svg10.dtd">
<svg version="1.0" xmlns="http://www.w3.org/2000/svg"
 width="24.000000pt" height="24.000000pt" viewBox="0 0 24.000000 24.000000"
 preserveAspectRatio="xMidYMid meet">
<metadata>
Created by potrace 1.13, written by Peter Selinger 2001-2015
</metadata>
<g transform="translate(0.000000,24.000000) scale(0.100000,-0.100000)"
fill="#000000" stroke="none">
<path d="M7 224 c-9 -9 -9 -136 -1 -158 4 -11 19 -16 50 -16 24 0 44 -4 44
-10 0 -5 -4 -10 -10 -10 -5 0 -10 -4 -10 -10 0 -5 18 -10 40 -10 22 0 40 5 40
10 0 6 -4 10 -10 10 -5 0 -10 4 -10 9 0 6 21 11 48 13 l47 3 0 85 0 85 -111 3
c-60 1 -113 -1 -117 -4z m213 -79 l0 -75 -100 0 -100 0 0 75 0 75 100 0 100 0
0 -75z"/>
</g>
</svg>
